<svg enable-background="new 0 0 40 40" height="40" viewBox="0 0 40 40" width="40" xmlns="http://www.w3.org/2000/svg"><path d="m20 21.569c-.095 0-.189-.021-.282-.062l-14.284-6.392c-.269-.12-.44-.395-.434-.702.006-.303.191-.578.46-.683l14.286-5.681c.082-.032.167-.049.254-.049.086 0 .172.017.254.049l14.285 5.679c.275.11.455.378.461.683.008.308-.163.584-.434.704l-14.285 6.395c-.089.039-.185.059-.281.059zm-12.374-7.101 12.339 5.522 12.409-5.522-12.374-4.919z"/><path d="m5.434 20.49c-.361-.163-.53-.604-.376-.983.113-.275.372-.454.659-.454.097 0 .191.021.282.062l13.967 6.249 14.037-6.249c.092-.042.186-.062.283-.062.286 0 .544.177.656.454.155.379-.014.82-.376.983l-14.566 6.518z"/><path d="m5.434 25.48c-.362-.164-.531-.604-.376-.981.113-.275.372-.454.659-.454.097 0 .191.021.282.061l13.967 6.25 14.037-6.25c.09-.039.186-.061.283-.061.286 0 .544.179.656.454.155.378-.014.819-.375.981l-14.567 6.52z"/></svg>